<svg width="204" height="40" viewBox="0 0 204 40" fill="none" xmlns="http://www.w3.org/2000/svg">
<path d="M50.216 24.096H51.8V30.216H48.776V27H41.336V30.216H38.312V24.096H39.776C40.464 23.072 40.808 21.656 40.808 19.848V15H50.216V24.096ZM43.088 24.096H47.192V17.784H43.832V19.848C43.832 21.544 43.584 22.96 43.088 24.096ZM62.3998 20.856C63.5198 21.4 64.0798 22.312 64.0798 23.592C64.0798 24.6 63.7278 25.424 63.0238 26.064C62.3358 26.688 61.3518 27 60.0718 27H53.7598V15H59.5918C60.8558 15 61.8318 15.312 62.5198 15.936C63.2238 16.56 63.5758 17.376 63.5758 18.384C63.5758 19.44 63.1838 20.264 62.3998 20.856ZM59.3038 17.544H56.6638V19.704H59.3038C60.1838 19.704 60.6238 19.344 60.6238 18.624C60.6238 17.904 60.1838 17.544 59.3038 17.544ZM59.7118 24.384C60.6078 24.384 61.0558 24 61.0558 23.232C61.0558 22.896 60.9358 22.632 60.6958 22.44C60.4558 22.248 60.1278 22.152 59.7118 22.152H56.6638V24.384H59.7118ZM68.6336 22.272C69.0496 23.776 70.1776 24.528 72.0176 24.528C73.2016 24.528 74.0976 24.128 74.7056 23.328L77.2016 24.768C76.0176 26.48 74.2736 27.336 71.9696 27.336C69.9856 27.336 68.3936 26.736 67.1936 25.536C65.9936 24.336 65.3936 22.824 65.3936 21C65.3936 19.192 65.9856 17.688 67.1696 16.488C68.3536 15.272 69.8736 14.664 71.7296 14.664C73.4896 14.664 74.9376 15.272 76.0736 16.488C77.2256 17.704 77.8016 19.208 77.8016 21C77.8016 21.4 77.7616 21.824 77.6816 22.272H68.6336ZM68.5856 19.872H74.7056C74.5296 19.056 74.1616 18.448 73.6016 18.048C73.0576 17.648 72.4336 17.448 71.7296 17.448C70.8976 17.448 70.2096 17.664 69.6656 18.096C69.1216 18.512 68.7616 19.104 68.5856 19.872ZM86.9469 14.664C88.5629 14.664 89.9389 15.28 91.0749 16.512C92.2269 17.728 92.8029 19.224 92.8029 21C92.8029 22.776 92.2269 24.28 91.0749 25.512C89.9389 26.728 88.5629 27.336 86.9469 27.336C85.2669 27.336 83.9709 26.752 83.0589 25.584V31.8H79.9629V15H83.0589V16.416C83.9709 15.248 85.2669 14.664 86.9469 14.664ZM83.9949 23.448C84.6189 24.072 85.4109 24.384 86.3709 24.384C87.3309 24.384 88.1229 24.072 88.7469 23.448C89.3869 22.808 89.7069 21.992 89.7069 21C89.7069 20.008 89.3869 19.2 88.7469 18.576C88.1229 17.936 87.3309 17.616 86.3709 17.616C85.4109 17.616 84.6189 17.936 83.9949 18.576C83.3709 19.2 83.0589 20.008 83.0589 21C83.0589 21.992 83.3709 22.808 83.9949 23.448ZM102.858 15H105.954V27H102.858V22.44H98.0823V27H94.9863V15H98.0823V19.536H102.858V15ZM119.015 25.512C117.783 26.728 116.279 27.336 114.503 27.336C112.727 27.336 111.223 26.728 109.991 25.512C108.775 24.28 108.167 22.776 108.167 21C108.167 19.224 108.775 17.728 109.991 16.512C111.223 15.28 112.727 14.664 114.503 14.664C116.279 14.664 117.783 15.28 119.015 16.512C120.247 17.728 120.863 19.224 120.863 21C120.863 22.776 120.247 24.28 119.015 25.512ZM112.175 23.376C112.799 24 113.575 24.312 114.503 24.312C115.431 24.312 116.207 24 116.831 23.376C117.455 22.752 117.767 21.96 117.767 21C117.767 20.04 117.455 19.248 116.831 18.624C116.207 18 115.431 17.688 114.503 17.688C113.575 17.688 112.799 18 112.175 18.624C111.567 19.248 111.263 20.04 111.263 21C111.263 21.96 111.567 22.752 112.175 23.376ZM125.057 13.464V10.776H132.017V13.464H125.057ZM131.705 15H134.009V27H130.985V20.184L125.345 27H123.041V15H126.065V21.816L131.705 15Z" fill="#202020"/>
<path d="M143.878 20.88C145.094 21.472 145.702 22.424 145.702 23.736C145.702 24.76 145.278 25.616 144.43 26.304C143.582 26.992 142.39 27.336 140.854 27.336C138.422 27.336 136.766 26.376 135.886 24.456L138.406 22.968C138.79 24.056 139.614 24.6 140.878 24.6C141.454 24.6 141.894 24.488 142.198 24.264C142.518 24.04 142.678 23.736 142.678 23.352C142.678 22.616 142.206 22.248 141.262 22.248H139.558V19.608H140.854C141.782 19.608 142.246 19.24 142.246 18.504C142.246 18.152 142.11 17.872 141.838 17.664C141.566 17.456 141.206 17.352 140.758 17.352C139.718 17.352 138.974 17.856 138.526 18.864L136.03 17.424C136.942 15.584 138.502 14.664 140.71 14.664C142.086 14.664 143.174 15.016 143.974 15.72C144.79 16.408 145.198 17.248 145.198 18.24C145.198 19.408 144.758 20.288 143.878 20.88ZM156.77 15H159.866V27H156.77V25.584C155.842 26.752 154.538 27.336 152.858 27.336C151.258 27.336 149.882 26.728 148.73 25.512C147.594 24.28 147.026 22.776 147.026 21C147.026 19.224 147.594 17.728 148.73 16.512C149.882 15.28 151.258 14.664 152.858 14.664C154.538 14.664 155.842 15.248 156.77 16.416V15ZM151.058 23.448C151.682 24.072 152.474 24.384 153.434 24.384C154.394 24.384 155.186 24.072 155.81 23.448C156.45 22.808 156.77 21.992 156.77 21C156.77 20.008 156.45 19.2 155.81 18.576C155.186 17.936 154.394 17.616 153.434 17.616C152.474 17.616 151.682 17.936 151.058 18.576C150.434 19.2 150.122 20.008 150.122 21C150.122 21.992 150.434 22.808 151.058 23.448ZM175.154 15V27H172.154V19.992L169.106 24.792H168.722L165.65 19.944V27H162.674V15H165.722L168.914 20.04L172.106 15H175.154ZM188.203 25.512C186.971 26.728 185.467 27.336 183.691 27.336C181.915 27.336 180.411 26.728 179.179 25.512C177.963 24.28 177.354 22.776 177.354 21C177.354 19.224 177.963 17.728 179.179 16.512C180.411 15.28 181.915 14.664 183.691 14.664C185.467 14.664 186.971 15.28 188.203 16.512C189.435 17.728 190.051 19.224 190.051 21C190.051 22.776 189.435 24.28 188.203 25.512ZM181.363 23.376C181.987 24 182.763 24.312 183.691 24.312C184.619 24.312 185.395 24 186.019 23.376C186.643 22.752 186.955 21.96 186.955 21C186.955 20.04 186.643 19.248 186.019 18.624C185.395 18 184.619 17.688 183.691 17.688C182.763 17.688 181.987 18 181.363 18.624C180.755 19.248 180.451 20.04 180.451 21C180.451 21.96 180.755 22.752 181.363 23.376ZM203.293 27H199.693L195.325 21.552V27H192.229V15H195.325V20.28L199.453 15H203.148L198.325 20.928L203.293 27Z" fill="#2FB042"/>
<path d="M25 15H22V3H3V37H22V25H25V40H0V0H25V15Z" fill="#202020"/>
<path d="M18 20C18 22.7614 15.7614 25 13 25C10.2386 25 8 22.7614 8 20C8 17.2386 10.2386 15 13 15C15.7614 15 18 17.2386 18 20Z" fill="#2FB042"/>
<path d="M17 18H29C30.1046 18 31 18.8954 31 20C31 21.1046 30.1046 22 29 22H17V18Z" fill="#2FB042"/>
</svg>
